<?xml version="1.0" encoding="UTF-8" standalone="no"?>
<svg width="1243px" height="522px" viewBox="0 0 1243 522" version="1.1" xmlns="http://www.w3.org/2000/svg" xmlns:xlink="http://www.w3.org/1999/xlink">
  <!-- Generator: Sketch 41.2 (35397) - http://www.bohemiancoding.com/sketch -->
  <title>Group 5</title>
  <desc>Created with Sketch.</desc>
  <defs></defs>
  <g id="Page-1" stroke="none" stroke-width="1" fill-rule="evenodd">
    <g id="Logo-variants" transform="translate(-913.000000, -1801.000000)">
      <g id="Group-4" transform="translate(749.000000, 901.459115)">
        <g id="Group-5" transform="translate(164.000000, 900.000000)">
          <path d="M122.404331,140.660667 C116.320853,136.928999 109.337537,134.520695 101.855513,133.836736 C101.666581,142.546758 88.7610702,149.575813 72.8665577,149.575813 C56.9672008,149.575813 44.0665343,142.546758 43.8679135,133.836736 C19.5489702,136.060262 0.500746169,156.507983 0.500746169,181.402755 C0.500746169,207.789567 21.8888207,207.721747 48.2666387,207.721747 L97.4664768,207.721747 C104.095407,207.721747 110.409208,207.725725 116.147618,207.312963 C111.167844,201.742538 108.351327,193.747184 108.351327,182.271298 C108.351327,166.628523 113.587426,152.207067 122.404331,140.660667 Z"
                id="Combined-Shape"></path>
          <path d="M308.940599,207.173282 C315.134063,207.726954 322.059319,207.721747 329.367603,207.721747 L378.567441,207.721747 C404.945259,207.721747 426.333333,207.784723 426.333333,181.402755 C426.333333,156.507983 407.280265,136.060262 382.956477,133.836736 C382.767545,142.546758 369.862034,149.575813 353.967522,149.575813 C338.068165,149.575813 325.167498,142.546758 324.968878,133.836736 C316.965492,134.5685 309.532964,137.27408 303.16238,141.462401 C311.616492,152.871504 316.615628,166.988526 316.615628,182.271298 C316.615628,193.651614 313.844809,201.609125 308.940596,207.173285 Z"
                id="Combined-Shape"></path>
          <path d="M173.480934,117.35686 C173.748075,129.060951 191.09919,138.506244 212.483478,138.506244 C233.86125,138.506244 251.21888,129.060951 251.47299,117.35686 C284.187953,120.344723 309.813914,147.821347 309.813914,181.273698 C309.813914,216.724467 281.047421,216.639844 245.569832,216.639844 L179.397124,216.639844 C143.919534,216.639844 115.153041,216.730977 115.153041,181.273698 C115.153041,147.821347 140.772487,120.344723 173.480934,117.35686 Z"
                id="Shape"></path>
          <path d="M163.227601,51.6984959 C163.227601,52.7790739 163.273211,53.8531424 163.331851,54.9207013 C163.429586,56.4829828 163.572929,58.0257356 163.794461,59.5424505 C163.833554,60.0046254 163.866133,60.4668004 163.911742,60.9289753 C167.01318,95.9696456 187.537406,123.04919 212.394523,123.04919 C237.25164,123.04919 257.775865,95.9696456 260.870788,60.9289753 C260.916397,60.4668004 260.955491,60.0046254 260.988069,59.5424505 C261.216116,58.0257356 261.35946,56.4829828 261.450679,54.9207013 C261.509319,53.8531424 261.554929,52.7790739 261.554929,51.6984959 C261.554929,49.036108 261.35946,46.4062676 260.988069,43.8545413 C257.397959,19.0272858 237.010562,0 212.394523,0 C187.778484,0 167.384571,19.0272858 163.794461,43.8545413 C163.42307,46.4127771 163.227601,49.036108 163.227601,51.6984959 Z M169.847478,61.3260551 C171.756557,61.8012491 174.108698,62.7386179 176.66934,64.5222225 C176.66934,64.5222225 171.808682,35.7046399 182.064279,31.6687462 C182.064279,31.6687462 196.216221,38.536275 212.388007,38.9724119 C228.559793,38.536275 242.70522,31.6687462 242.70522,31.6687462 C252.960817,35.7046399 248.100159,64.5092035 248.100159,64.5092035 C250.667316,62.7386179 253.012942,61.8012491 254.92202,61.3260551 C252.094238,91.9337519 234.143686,115.53722 212.388007,115.53722 C190.632328,115.53722 172.668745,91.9337519 169.847478,61.3260551 Z"
                id="Shape"></path>
          <path d="M317.416441,84.8271202 C317.416441,85.6312713 317.450352,86.430578 317.493951,87.2250405 C317.566617,88.3876686 317.673195,89.5357637 317.837905,90.6644818 C317.866971,91.0084259 317.891193,91.35237 317.925104,91.6963142 C320.231044,117.773092 335.490938,137.925311 353.972366,137.925311 C372.453794,137.925311 387.713689,117.773092 390.014784,91.6963142 C390.048695,91.35237 390.077761,91.0084259 390.101983,90.6644818 C390.271538,89.5357637 390.378115,88.3876686 390.445937,87.2250405 C390.489536,86.430578 390.523447,85.6312713 390.523447,84.8271202 C390.523447,82.8458083 390.378115,80.8887178 390.101983,78.9897586 C387.432713,60.5136615 372.274551,46.3538209 353.972366,46.3538209 C335.670181,46.3538209 320.507175,60.5136615 317.837905,78.9897586 C317.561773,80.893562 317.416441,82.8458083 317.416441,84.8271202 Z M322.338362,91.9918155 C323.757775,92.3454482 325.506607,93.043025 327.410461,94.3703586 C327.410461,94.3703586 323.79653,72.9247157 331.421633,69.92126 C331.421633,69.92126 341.943694,75.0319791 353.967522,75.356546 C365.99135,75.0319791 376.508566,69.92126 376.508566,69.92126 C384.133669,72.9247157 380.519738,94.3606701 380.519738,94.3606701 C382.428436,93.043025 384.172424,92.3454482 385.591837,91.9918155 C383.489362,114.769636 370.14301,132.335008 353.967522,132.335008 C337.792033,132.335008 324.435992,114.769636 322.338362,91.9918155 Z"
                id="Shape"></path>
          <path d="M36.3154767,84.8271202 C36.3154767,85.6312713 36.3493876,86.430578 36.3929873,87.2250405 C36.4656535,88.3876686 36.5722305,89.5357637 36.7369405,90.6644818 C36.7660069,91.0084259 36.790229,91.35237 36.8241399,91.6963142 C39.1300795,117.773092 54.3899742,137.925311 72.8714021,137.925311 C91.3528301,137.925311 106.612725,117.773092 108.91382,91.6963142 C108.947731,91.35237 108.976797,91.0084259 109.001019,90.6644818 C109.170574,89.5357637 109.277151,88.3876686 109.344973,87.2250405 C109.388572,86.430578 109.422483,85.6312713 109.422483,84.8271202 C109.422483,82.8458083 109.277151,80.8887178 109.001019,78.9897586 C106.331749,60.5136615 91.1735869,46.3538209 72.8714021,46.3538209 C54.5692174,46.3538209 39.4062109,60.5136615 36.7369405,78.9897586 C36.460809,80.893562 36.3154767,82.8458083 36.3154767,84.8271202 Z M41.2373983,91.9918155 C42.6568107,92.3454482 44.4056431,93.043025 46.3094966,94.3703586 C46.3094966,94.3703586 42.695566,72.9247157 50.3206689,69.92126 C50.3206689,69.92126 60.8427296,75.0319791 72.8665577,75.356546 C84.8903858,75.0319791 95.4076021,69.92126 95.4076021,69.92126 C103.032705,72.9247157 99.4187744,94.3606701 99.4187744,94.3606701 C101.327472,93.043025 103.07146,92.3454482 104.490873,91.9918155 C102.388398,114.769636 89.0420461,132.335008 72.8665577,132.335008 C56.6910694,132.335008 43.3350283,114.769636 41.2373983,91.9918155 Z"
                id="Shape"></path>
          <path d="M18.8266831,342.080713 L18.8266831,408.02797 L0.37037037,408.02797 L0.37037037,249.450848 L43.9055551,249.450848 C63.3752529,249.450848 77.7601763,253.174806 87.0607569,260.622834 C96.3613375,268.070862 101.011558,279.278891 101.011558,294.247258 C101.011558,315.217434 90.3721429,329.390168 69.0929936,336.765885 L112.193912,408.02797 L90.3720365,408.02797 L51.9394795,342.080713 L18.8266831,342.080713 Z M18.8266831,326.244694 L44.1226882,326.244694 C57.1507388,326.244694 66.7044992,323.659616 72.7842562,318.489383 C78.8640131,313.31915 81.903846,305.563917 81.903846,295.223451 C81.903846,284.738363 78.8097304,277.181982 72.6214064,272.554081 C66.4330823,267.92618 56.4993428,265.612265 42.8198896,265.612265 L18.8266831,265.612265 L18.8266831,326.244694 Z M283.041464,327.220887 C283.041464,353.397451 275.930426,373.409206 261.708138,387.256754 C247.485849,401.104301 227.02126,408.02797 200.313756,408.02797 L156.344305,408.02797 L156.344305,249.450848 L204.982118,249.450848 C229.663036,249.450848 248.842934,256.28413 262.522387,269.9509 C276.20184,283.61767 283.041464,302.707474 283.041464,327.220887 Z M263.499486,327.871682 C263.499486,307.19075 258.306438,291.607974 247.920186,281.122886 C237.533935,270.637798 222.099545,265.395333 201.616555,265.395333 L174.800618,265.395333 L174.800618,392.083485 L197.273893,392.083485 C219.276823,392.083485 235.814961,386.678323 246.888804,375.867836 C257.962647,365.057349 263.499486,349.058791 263.499486,327.871682 Z M426.530246,365.834742 C426.530246,379.790755 421.463858,390.67339 411.33093,398.482973 C401.198001,406.292555 387.446376,410.197288 370.075642,410.197288 C351.257347,410.197288 336.781952,407.774908 326.649024,402.930074 L326.649024,385.141669 C333.163049,387.889485 340.255993,390.058781 347.928067,391.649622 C355.600141,393.240463 363.199723,394.035871 370.727042,394.035871 C383.031312,394.035871 392.295564,391.703878 398.520077,387.039822 C404.74459,382.375765 407.8568,375.885955 407.8568,367.570196 C407.8568,362.074563 406.753051,357.573274 404.54552,354.066193 C402.33799,350.559112 398.646764,347.323245 393.471733,344.358496 C388.296702,341.393747 380.425706,338.031339 369.858509,334.271169 C355.093385,328.99247 344.544441,322.737666 338.211361,315.506571 C331.878281,308.275476 328.711788,298.839039 328.711788,287.196976 C328.711788,274.976425 333.307726,265.250748 342.49974,258.019653 C351.691753,250.788558 363.851085,247.173064 378.978099,247.173064 C394.756516,247.173064 409.268099,250.065459 422.513284,255.850335 L416.759257,271.903286 C403.658828,266.407654 390.920481,263.659879 378.543833,263.659879 C368.772795,263.659879 361.137024,265.756865 355.636292,269.9509 C350.135559,274.144935 347.385234,279.965879 347.385234,287.413907 C347.385234,292.90954 348.398512,297.410829 350.425098,300.91791 C352.451683,304.424991 355.871495,307.64278 360.684636,310.571374 C365.497777,313.499967 372.862134,316.735834 382.777928,320.27907 C399.424882,326.208568 410.878538,332.571836 417.13924,339.369066 C423.399942,346.166295 426.530246,354.988099 426.530246,365.834742 Z M489.245518,408.02797 L478.171731,408.02797 L478.171731,249.450848 L565.133533,249.450848 L565.133533,259.646641 L489.245518,259.646641 L489.245518,326.895489 L560.899438,326.895489 L560.899438,337.199748 L489.245518,337.199748 L489.245518,408.02797 Z M652.059145,287.847771 C657.053231,287.847771 662.409128,288.35394 668.126994,289.366293 L666.06423,299.670552 C661.142522,298.441266 656.039945,297.826632 650.756347,297.826632 C640.695797,297.826632 632.444822,302.092914 626.003175,310.625607 C619.561527,319.158299 616.340752,329.932469 616.340752,342.94844 L616.340752,408.02797 L605.592664,408.02797 L605.592664,290.125554 L614.712254,290.125554 L615.797919,311.384868 L616.557885,311.384868 C621.407215,302.707554 626.582169,296.615447 632.082901,293.108366 C637.583634,289.601285 644.242315,287.847771 652.059145,287.847771 Z M803.798985,348.914064 C803.798985,368.148777 799.13067,383.171151 789.793901,393.981638 C780.457131,404.792126 767.57403,410.197288 751.14421,410.197288 C740.794148,410.197288 731.674649,407.702598 723.785441,402.713142 C715.896233,397.723686 709.852755,390.56501 705.654828,381.236897 C701.456901,371.908784 699.357968,361.134614 699.357968,348.914064 C699.357968,329.679351 704.026283,314.693131 713.363053,303.954955 C722.699822,293.216778 735.510547,287.847771 751.79561,287.847771 C768.008295,287.847771 780.728548,293.289088 789.95675,304.171886 C799.184953,315.054685 803.798985,329.968594 803.798985,348.914064 Z M710.648889,348.914064 C710.648889,365.111717 714.213455,377.747866 721.342694,386.82289 C728.471933,395.897914 738.550426,400.435358 751.578477,400.435358 C764.606527,400.435358 774.685021,395.897914 781.81426,386.82289 C788.943498,377.747866 792.508064,365.111717 792.508064,348.914064 C792.508064,332.6441 788.90731,320.026028 781.705693,311.05947 C774.504076,302.092912 764.389394,297.6097 751.361344,297.6097 C738.333293,297.6097 728.290988,302.074835 721.234127,311.005237 C714.177266,319.93564 710.648889,332.571789 710.648889,348.914064 Z M937.299645,408.02797 L937.299645,331.559522 C937.299645,319.700526 934.802639,311.077575 929.808553,305.690409 C924.814467,300.303243 917.070131,297.6097 906.575313,297.6097 C892.461591,297.6097 882.129778,301.170961 875.579564,308.29359 C869.02935,315.416219 865.754292,326.96772 865.754292,342.94844 L865.754292,408.02797 L855.006204,408.02797 L855.006204,290.125554 L864.125793,290.125554 L866.188558,306.286971 L866.839957,306.286971 C874.512031,293.99411 888.155091,287.847771 907.769545,287.847771 C934.549426,287.847771 947.939166,302.201279 947.939166,330.908727 L947.939166,408.02797 L937.299645,408.02797 Z M1035.84188,400.65229 C1042.64541,400.65229 1048.58033,400.073811 1053.64679,398.916836 L1053.64679,407.594107 C1048.43557,409.32957 1042.42828,410.197288 1035.62474,410.197288 C1025.2023,410.197288 1017.51225,407.413358 1012.55435,401.845415 C1007.59646,396.277472 1005.11754,387.527978 1005.11754,375.596671 L1005.11754,299.453621 L987.638331,299.453621 L987.638331,293.162599 L1005.11754,288.281634 L1010.54587,261.599027 L1016.08277,261.599027 L1016.08277,290.125554 L1050.71549,290.125554 L1050.71549,299.453621 L1016.08277,299.453621 L1016.08277,374.078149 C1016.08277,383.117018 1017.67506,389.80568 1020.85969,394.144337 C1024.04433,398.482994 1029.03834,400.65229 1035.84188,400.65229 Z M1092.0687,365.420019 C1092.0687,354.854113 1094.88502,345.857915 1100.51773,338.431155 C1106.15045,331.004395 1116.66853,323.156648 1132.07228,314.887678 L1123.45082,305.470287 C1118.39287,300.034205 1114.63778,294.713049 1112.18544,289.506661 C1109.73311,284.300272 1108.50695,278.864272 1108.50695,273.198496 C1108.50695,262.249768 1112.16625,253.559823 1119.48495,247.128402 C1126.80365,240.696981 1136.63201,237.481319 1148.97034,237.481319 C1160.84886,237.481319 1170.25574,240.582136 1177.19126,246.783863 C1184.12678,252.985591 1187.59449,261.56069 1187.59449,272.509419 C1187.59449,280.548695 1184.91228,287.917921 1179.54779,294.617318 C1174.1833,301.316715 1164.48904,308.762505 1150.46473,316.95491 L1202.4234,369.439637 C1207.09817,363.92699 1211.08316,357.916765 1214.37849,351.408779 C1217.67383,344.900793 1220.54762,337.206173 1222.99996,328.324687 L1234.03543,328.324687 C1229.20738,347.159563 1221.19908,363.467564 1210.01029,377.249181 L1240.58774,408.02797 L1225.06911,408.02797 L1202.88321,385.403263 C1195.83274,392.294071 1189.54871,397.328114 1184.03095,400.505542 C1178.51319,403.682971 1172.47823,406.113858 1165.92588,407.798278 C1159.37354,409.482698 1151.92084,410.324895 1143.56756,410.324895 C1127.55072,410.324895 1114.96352,406.381881 1105.80556,398.495733 C1096.64761,390.609586 1092.0687,379.584458 1092.0687,365.420019 Z M1144.37223,399.988734 C1154.18159,399.988734 1163.16698,398.323481 1171.32867,394.992923 C1179.49036,391.662366 1187.51781,386.054098 1195.41128,378.167951 L1139.88907,322.467529 C1129.46663,327.980176 1121.9373,332.669683 1117.30084,336.536192 C1112.66439,340.402701 1109.29248,344.594547 1107.185,349.111854 C1105.07752,353.629162 1104.02379,358.912036 1104.02379,364.960634 C1104.02379,375.909363 1107.5873,384.484462 1114.71441,390.68619 C1121.84152,396.887917 1131.72736,399.988734 1144.37223,399.988734 Z M1120.80691,272.968804 C1120.80691,279.017402 1122.33959,284.606529 1125.40502,289.736353 C1128.47044,294.866177 1134.29466,301.527192 1142.87785,309.719597 C1155.0629,303.211612 1163.53101,297.124823 1168.28242,291.459047 C1173.03382,285.793271 1175.40949,279.323665 1175.40949,272.050034 C1175.40949,264.852968 1173.03382,259.015009 1168.28242,254.535984 C1163.53101,250.056958 1157.09372,247.817479 1148.97034,247.817479 C1140.23389,247.817479 1133.35595,250.037818 1128.33631,254.478561 C1123.31668,258.919304 1120.80691,265.082657 1120.80691,272.968804 Z"
                id="RDSFront&amp;"></path>
          <g id="Group-3" transform="translate(0.370370, 133.081319)"></g>
          <path d="M809.480694,502.88937 C803.384864,502.88937 798.610305,500.967964 795.156873,497.125097 C791.703441,493.282229 789.976752,487.923208 789.976752,481.047873 C789.976752,473.989545 791.768846,468.49328 795.35309,464.558916 C798.937333,460.624551 803.842702,458.657398 810.069344,458.657398 C813.758237,458.657398 817.290103,459.297867 820.665047,460.578823 L819.605477,464.029544 C815.916584,462.800872 812.711743,462.186545 809.990857,462.186545 C804.758385,462.186545 800.794847,463.800787 798.100124,467.029318 C795.405401,470.25785 794.058059,474.904514 794.058059,480.969448 C794.058059,486.720678 795.405401,491.223563 798.100124,494.478237 C800.794847,497.73291 804.562171,499.360223 809.402207,499.360223 C813.274237,499.360223 816.871507,498.667471 820.194127,497.281948 L820.194127,500.88952 C817.473242,502.22276 813.902133,502.88937 809.480694,502.88937 Z M872.610154,480.734171 C872.610154,487.687932 870.922707,493.118842 867.547762,497.027065 C864.172818,500.935288 859.515988,502.88937 853.577132,502.88937 C849.835914,502.88937 846.539506,501.987486 843.687809,500.18369 C840.836111,498.379895 838.651587,495.79188 837.13417,492.419568 C835.616753,489.047255 834.858056,485.152162 834.858056,480.734171 C834.858056,473.780411 836.545503,468.362571 839.920448,464.48049 C843.295392,460.59841 847.926061,458.657398 853.812592,458.657398 C859.672961,458.657398 864.270926,460.624551 867.606627,464.558916 C870.942328,468.49328 872.610154,473.884978 872.610154,480.734171 Z M838.939364,480.734171 C838.939364,486.58997 840.227841,491.158208 842.804833,494.439024 C845.381826,497.71984 849.02488,499.360223 853.734105,499.360223 C858.44333,499.360223 862.086384,497.71984 864.663377,494.439024 C867.240369,491.158208 868.528846,486.58997 868.528846,480.734171 C868.528846,474.852231 867.227288,470.290528 864.624133,467.048925 C862.020978,463.807322 858.364843,462.186545 853.655618,462.186545 C848.946393,462.186545 845.31642,463.800787 842.76559,467.029318 C840.21476,470.25785 838.939364,474.826089 838.939364,480.734171 Z M944.412393,502.105115 L944.412393,474.146431 C944.412393,469.98986 943.601372,466.957438 941.979306,465.049075 C940.357239,463.140712 937.871852,462.186545 934.52307,462.186545 C930.153956,462.186545 926.922953,463.389057 924.829964,465.794117 C922.736975,468.199177 921.690496,471.976633 921.690496,477.126599 L921.690496,502.105115 L917.726919,502.105115 L917.726919,472.970049 C917.726919,465.78101 914.430511,462.186545 907.837596,462.186545 C903.363832,462.186545 900.106667,463.487088 898.066003,466.088213 C896.025339,468.689337 895.005022,472.852382 895.005022,478.577471 L895.005022,502.105115 L891.119931,502.105115 L891.119931,459.480866 L894.337885,459.480866 L895.161995,465.323564 L895.397455,465.323564 C896.574762,463.206066 898.249127,461.565682 900.420603,460.402365 C902.592079,459.239048 904.985899,458.657398 907.602136,458.657398 C914.325862,458.657398 918.642587,461.180059 920.552439,466.225457 L920.709413,466.225457 C922.096018,463.794255 923.960058,461.925133 926.301589,460.618035 C928.643121,459.310938 931.305101,458.657398 934.28761,458.657398 C938.94451,458.657398 942.437133,459.899123 944.765583,462.382609 C947.094033,464.866095 948.258241,468.813471 948.258241,474.224856 L948.258241,502.105115 L944.412393,502.105115 Z M1022.06189,502.105115 L1022.06189,474.146431 C1022.06189,469.98986 1021.25087,466.957438 1019.6288,465.049075 C1018.00674,463.140712 1015.52135,462.186545 1012.17257,462.186545 C1007.80345,462.186545 1004.57245,463.389057 1002.47946,465.794117 C1000.38647,468.199177 999.339994,471.976633 999.339994,477.126599 L999.339994,502.105115 L995.376416,502.105115 L995.376416,472.970049 C995.376416,465.78101 992.080008,462.186545 985.487093,462.186545 C981.013329,462.186545 977.756164,463.487088 975.7155,466.088213 C973.674836,468.689337 972.654519,472.852382 972.654519,478.577471 L972.654519,502.105115 L968.769428,502.105115 L968.769428,459.480866 L971.987383,459.480866 L972.811493,465.323564 L973.046953,465.323564 C974.224259,463.206066 975.898625,461.565682 978.070101,460.402365 C980.241577,459.239048 982.635397,458.657398 985.251633,458.657398 C991.97536,458.657398 996.292085,461.180059 998.201937,466.225457 L998.35891,466.225457 C999.745515,463.794255 1001.60956,461.925133 1003.95109,460.618035 C1006.29262,459.310938 1008.9546,458.657398 1011.93711,458.657398 C1016.59401,458.657398 1020.08663,459.899123 1022.41508,462.382609 C1024.74353,464.866095 1025.90774,468.813471 1025.90774,474.224856 L1025.90774,502.105115 L1022.06189,502.105115 Z M1049.79385,459.480866 L1049.79385,487.086635 C1049.79385,491.373916 1050.69644,494.491298 1052.50164,496.438874 C1054.30685,498.38645 1057.10618,499.360223 1060.89972,499.360223 C1065.97522,499.360223 1069.70984,498.079286 1072.1037,495.517374 C1074.49755,492.955463 1075.69446,488.785883 1075.69446,483.00851 L1075.69446,459.480866 L1079.54031,459.480866 L1079.54031,502.105115 L1076.24387,502.105115 L1075.53749,496.223204 L1075.30203,496.223204 C1072.52882,500.667336 1067.59729,502.88937 1060.50729,502.88937 C1050.80105,502.88937 1045.94801,497.700269 1045.94801,487.321912 L1045.94801,459.480866 L1049.79385,459.480866 Z M1130.26887,502.105115 L1130.26887,474.460133 C1130.26887,470.172852 1129.36628,467.05547 1127.56108,465.107894 C1125.75588,463.160318 1122.95655,462.186545 1119.16301,462.186545 C1114.06134,462.186545 1110.32672,463.474017 1107.95903,466.049 C1105.59134,468.623983 1104.40751,472.800098 1104.40751,478.577471 L1104.40751,502.105115 L1100.52242,502.105115 L1100.52242,459.480866 L1103.81886,459.480866 L1104.56448,465.323564 L1104.79994,465.323564 C1107.57315,460.879431 1112.50468,458.657398 1119.59468,458.657398 C1129.27476,458.657398 1134.11472,463.846499 1134.11472,474.224856 L1134.11472,502.105115 L1130.26887,502.105115 Z M1158.511,502.105115 L1154.62591,502.105115 L1154.62591,459.480866 L1158.511,459.480866 L1158.511,502.105115 Z M1154.0765,447.638618 C1154.0765,445.12899 1154.9006,443.874195 1156.54883,443.874195 C1157.35986,443.874195 1157.99429,444.200965 1158.45213,444.854514 C1158.90997,445.508063 1159.13889,446.436088 1159.13889,447.638618 C1159.13889,448.815006 1158.90997,449.743032 1158.45213,450.422723 C1157.99429,451.102414 1157.35986,451.442254 1156.54883,451.442254 C1154.9006,451.442254 1154.0765,450.174388 1154.0765,447.638618 Z M1190.75595,499.438648 C1193.21521,499.438648 1195.36049,499.229516 1197.19185,498.811245 L1197.19185,501.948264 C1195.30816,502.575671 1193.13672,502.88937 1190.67746,502.88937 C1186.91008,502.88937 1184.13037,501.882919 1182.33825,499.869989 C1180.54613,497.857058 1179.65008,494.693928 1179.65008,490.380505 L1179.65008,462.853162 L1173.3319,462.853162 L1173.3319,460.578823 L1179.65008,458.814249 L1181.61225,449.167915 L1183.61366,449.167915 L1183.61366,459.480866 L1196.13228,459.480866 L1196.13228,462.853162 L1183.61366,462.853162 L1183.61366,489.831527 C1183.61366,493.099272 1184.18922,495.517367 1185.34036,497.085884 C1186.49151,498.654401 1188.29668,499.438648 1190.75595,499.438648 Z M1205.96928,459.480866 L1209.9721,459.480866 L1218.99807,483.400638 C1221.74512,490.746528 1223.48489,495.700354 1224.21744,498.262266 L1224.4529,498.262266 C1225.55172,494.889954 1227.34381,489.857702 1229.82924,483.165361 L1238.8552,459.480866 L1242.85803,459.480866 L1223.74652,509.006557 C1222.20294,513.032419 1220.90792,515.751141 1219.86143,517.162807 C1218.81493,518.574473 1217.59186,519.633206 1216.19217,520.339039 C1214.79249,521.044872 1213.0985,521.397783 1211.11016,521.397783 C1209.61891,521.397783 1207.95762,521.123297 1206.12625,520.574315 L1206.12625,517.20202 C1207.64367,517.620291 1209.27879,517.829424 1211.03167,517.829424 C1212.36595,517.829424 1213.54324,517.515725 1214.56357,516.888318 C1215.58391,516.260911 1216.50612,515.287138 1217.33023,513.966969 C1218.15434,512.6468 1219.10926,510.555475 1220.19499,507.69293 C1221.28073,504.830386 1221.98056,502.967799 1222.29451,502.105115 L1205.96928,459.480866 Z"
                id="community"></path>
        </g>
      </g>
    </g>
  </g>
</svg>
