<?xml version="1.0" encoding="UTF-8" standalone="no"?>
<svg width="1243px" height="535px" viewBox="0 0 1243 535" version="1.1" xmlns="http://www.w3.org/2000/svg" xmlns:xlink="http://www.w3.org/1999/xlink">
  <!-- Generator: Sketch 41.2 (35397) - http://www.bohemiancoding.com/sketch -->
  <title>original</title>
  <desc>Created with Sketch.</desc>
  <defs></defs>
  <g id="Page-1" stroke="none" stroke-width="1" fill-rule="evenodd">
    <g id="Logo-variants" transform="translate(-276.000000, -189.000000)">
      <g id="original" transform="translate(276.000000, 188.000000)">
        <g id="header" transform="translate(0.000000, 251.459115)">
          <path d="M809.480694,265.88937 C803.384864,265.88937 798.610305,263.967964 795.156873,260.125097 C791.703441,256.282229 789.976752,250.923208 789.976752,244.047873 C789.976752,236.989545 791.768846,231.49328 795.35309,227.558916 C798.937333,223.624551 803.842702,221.657398 810.069344,221.657398 C813.758237,221.657398 817.290103,222.297867 820.665047,223.578823 L819.605477,227.029544 C815.916584,225.800872 812.711743,225.186545 809.990857,225.186545 C804.758385,225.186545 800.794847,226.800787 798.100124,230.029318 C795.405401,233.25785 794.058059,237.904514 794.058059,243.969448 C794.058059,249.720678 795.405401,254.223563 798.100124,257.478237 C800.794847,260.73291 804.562171,262.360223 809.402207,262.360223 C813.274237,262.360223 816.871507,261.667471 820.194127,260.281948 L820.194127,263.88952 C817.473242,265.22276 813.902133,265.88937 809.480694,265.88937 Z M872.610154,243.734171 C872.610154,250.687932 870.922707,256.118842 867.547762,260.027065 C864.172818,263.935288 859.515988,265.88937 853.577132,265.88937 C849.835914,265.88937 846.539506,264.987486 843.687809,263.18369 C840.836111,261.379895 838.651587,258.79188 837.13417,255.419568 C835.616753,252.047255 834.858056,248.152162 834.858056,243.734171 C834.858056,236.780411 836.545503,231.362571 839.920448,227.48049 C843.295392,223.59841 847.926061,221.657398 853.812592,221.657398 C859.672961,221.657398 864.270926,223.624551 867.606627,227.558916 C870.942328,231.49328 872.610154,236.884978 872.610154,243.734171 Z M838.939364,243.734171 C838.939364,249.58997 840.227841,254.158208 842.804833,257.439024 C845.381826,260.71984 849.02488,262.360223 853.734105,262.360223 C858.44333,262.360223 862.086384,260.71984 864.663377,257.439024 C867.240369,254.158208 868.528846,249.58997 868.528846,243.734171 C868.528846,237.852231 867.227288,233.290528 864.624133,230.048925 C862.020978,226.807322 858.364843,225.186545 853.655618,225.186545 C848.946393,225.186545 845.31642,226.800787 842.76559,230.029318 C840.21476,233.25785 838.939364,237.826089 838.939364,243.734171 Z M944.412393,265.105115 L944.412393,237.146431 C944.412393,232.98986 943.601372,229.957438 941.979306,228.049075 C940.357239,226.140712 937.871852,225.186545 934.52307,225.186545 C930.153956,225.186545 926.922953,226.389057 924.829964,228.794117 C922.736975,231.199177 921.690496,234.976633 921.690496,240.126599 L921.690496,265.105115 L917.726919,265.105115 L917.726919,235.970049 C917.726919,228.78101 914.430511,225.186545 907.837596,225.186545 C903.363832,225.186545 900.106667,226.487088 898.066003,229.088213 C896.025339,231.689337 895.005022,235.852382 895.005022,241.577471 L895.005022,265.105115 L891.119931,265.105115 L891.119931,222.480866 L894.337885,222.480866 L895.161995,228.323564 L895.397455,228.323564 C896.574762,226.206066 898.249127,224.565682 900.420603,223.402365 C902.592079,222.239048 904.985899,221.657398 907.602136,221.657398 C914.325862,221.657398 918.642587,224.180059 920.552439,229.225457 L920.709413,229.225457 C922.096018,226.794255 923.960058,224.925133 926.301589,223.618035 C928.643121,222.310938 931.305101,221.657398 934.28761,221.657398 C938.94451,221.657398 942.437133,222.899123 944.765583,225.382609 C947.094033,227.866095 948.258241,231.813471 948.258241,237.224856 L948.258241,265.105115 L944.412393,265.105115 Z M1022.06189,265.105115 L1022.06189,237.146431 C1022.06189,232.98986 1021.25087,229.957438 1019.6288,228.049075 C1018.00674,226.140712 1015.52135,225.186545 1012.17257,225.186545 C1007.80345,225.186545 1004.57245,226.389057 1002.47946,228.794117 C1000.38647,231.199177 999.339994,234.976633 999.339994,240.126599 L999.339994,265.105115 L995.376416,265.105115 L995.376416,235.970049 C995.376416,228.78101 992.080008,225.186545 985.487093,225.186545 C981.013329,225.186545 977.756164,226.487088 975.7155,229.088213 C973.674836,231.689337 972.654519,235.852382 972.654519,241.577471 L972.654519,265.105115 L968.769428,265.105115 L968.769428,222.480866 L971.987383,222.480866 L972.811493,228.323564 L973.046953,228.323564 C974.224259,226.206066 975.898625,224.565682 978.070101,223.402365 C980.241577,222.239048 982.635397,221.657398 985.251633,221.657398 C991.97536,221.657398 996.292085,224.180059 998.201937,229.225457 L998.35891,229.225457 C999.745515,226.794255 1001.60956,224.925133 1003.95109,223.618035 C1006.29262,222.310938 1008.9546,221.657398 1011.93711,221.657398 C1016.59401,221.657398 1020.08663,222.899123 1022.41508,225.382609 C1024.74353,227.866095 1025.90774,231.813471 1025.90774,237.224856 L1025.90774,265.105115 L1022.06189,265.105115 Z M1049.79385,222.480866 L1049.79385,250.086635 C1049.79385,254.373916 1050.69644,257.491298 1052.50164,259.438874 C1054.30685,261.38645 1057.10618,262.360223 1060.89972,262.360223 C1065.97522,262.360223 1069.70984,261.079286 1072.1037,258.517374 C1074.49755,255.955463 1075.69446,251.785883 1075.69446,246.00851 L1075.69446,222.480866 L1079.54031,222.480866 L1079.54031,265.105115 L1076.24387,265.105115 L1075.53749,259.223204 L1075.30203,259.223204 C1072.52882,263.667336 1067.59729,265.88937 1060.50729,265.88937 C1050.80105,265.88937 1045.94801,260.700269 1045.94801,250.321912 L1045.94801,222.480866 L1049.79385,222.480866 Z M1130.26887,265.105115 L1130.26887,237.460133 C1130.26887,233.172852 1129.36628,230.05547 1127.56108,228.107894 C1125.75588,226.160318 1122.95655,225.186545 1119.16301,225.186545 C1114.06134,225.186545 1110.32672,226.474017 1107.95903,229.049 C1105.59134,231.623983 1104.40751,235.800098 1104.40751,241.577471 L1104.40751,265.105115 L1100.52242,265.105115 L1100.52242,222.480866 L1103.81886,222.480866 L1104.56448,228.323564 L1104.79994,228.323564 C1107.57315,223.879431 1112.50468,221.657398 1119.59468,221.657398 C1129.27476,221.657398 1134.11472,226.846499 1134.11472,237.224856 L1134.11472,265.105115 L1130.26887,265.105115 Z M1158.511,265.105115 L1154.62591,265.105115 L1154.62591,222.480866 L1158.511,222.480866 L1158.511,265.105115 Z M1154.0765,210.638618 C1154.0765,208.12899 1154.9006,206.874195 1156.54883,206.874195 C1157.35986,206.874195 1157.99429,207.200965 1158.45213,207.854514 C1158.90997,208.508063 1159.13889,209.436088 1159.13889,210.638618 C1159.13889,211.815006 1158.90997,212.743032 1158.45213,213.422723 C1157.99429,214.102414 1157.35986,214.442254 1156.54883,214.442254 C1154.9006,214.442254 1154.0765,213.174388 1154.0765,210.638618 Z M1190.75595,262.438648 C1193.21521,262.438648 1195.36049,262.229516 1197.19185,261.811245 L1197.19185,264.948264 C1195.30816,265.575671 1193.13672,265.88937 1190.67746,265.88937 C1186.91008,265.88937 1184.13037,264.882919 1182.33825,262.869989 C1180.54613,260.857058 1179.65008,257.693928 1179.65008,253.380505 L1179.65008,225.853162 L1173.3319,225.853162 L1173.3319,223.578823 L1179.65008,221.814249 L1181.61225,212.167915 L1183.61366,212.167915 L1183.61366,222.480866 L1196.13228,222.480866 L1196.13228,225.853162 L1183.61366,225.853162 L1183.61366,252.831527 C1183.61366,256.099272 1184.18922,258.517367 1185.34036,260.085884 C1186.49151,261.654401 1188.29668,262.438648 1190.75595,262.438648 Z M1205.96928,222.480866 L1209.9721,222.480866 L1218.99807,246.400638 C1221.74512,253.746528 1223.48489,258.700354 1224.21744,261.262266 L1224.4529,261.262266 C1225.55172,257.889954 1227.34381,252.857702 1229.82924,246.165361 L1238.8552,222.480866 L1242.85803,222.480866 L1223.74652,272.006557 C1222.20294,276.032419 1220.90792,278.751141 1219.86143,280.162807 C1218.81493,281.574473 1217.59186,282.633206 1216.19217,283.339039 C1214.79249,284.044872 1213.0985,284.397783 1211.11016,284.397783 C1209.61891,284.397783 1207.95762,284.123297 1206.12625,283.574315 L1206.12625,280.20202 C1207.64367,280.620291 1209.27879,280.829424 1211.03167,280.829424 C1212.36595,280.829424 1213.54324,280.515725 1214.56357,279.888318 C1215.58391,279.260911 1216.50612,278.287138 1217.33023,276.966969 C1218.15434,275.6468 1219.10926,273.555475 1220.19499,270.69293 C1221.28073,267.830386 1221.98056,265.967799 1222.29451,265.105115 L1205.96928,222.480866 Z" id="community"></path>
          <path d="M18.8266831,105.080713 L18.8266831,171.02797 L0.37037037,171.02797 L0.37037037,12.450848 L43.9055551,12.450848 C63.3752529,12.450848 77.7601763,16.1748061 87.0607569,23.622834 C96.3613375,31.070862 101.011558,42.2788912 101.011558,57.2472581 C101.011558,78.2174338 90.3721429,92.3901676 69.0929936,99.7658846 L112.193912,171.02797 L90.3720365,171.02797 L51.9394795,105.080713 L18.8266831,105.080713 Z M18.8266831,89.2446939 L44.1226882,89.2446939 C57.1507388,89.2446939 66.7044992,86.6596161 72.7842562,81.4893831 C78.8640131,76.3191502 81.903846,68.563917 81.903846,58.223451 C81.903846,47.7383632 78.8097304,40.1819821 72.6214064,35.5540813 C66.4330823,30.9261804 56.4993428,28.6122647 42.8198896,28.6122647 L18.8266831,28.6122647 L18.8266831,89.2446939 Z M283.041464,90.2208868 C283.041464,116.397451 275.930426,136.409206 261.708138,150.256754 C247.485849,164.104301 227.02126,171.02797 200.313756,171.02797 L156.344305,171.02797 L156.344305,12.450848 L204.982118,12.450848 C229.663036,12.450848 248.842934,19.2841304 262.522387,32.9509001 C276.20184,46.6176698 283.041464,65.7074745 283.041464,90.2208868 Z M263.499486,90.8716821 C263.499486,70.1907502 258.306438,54.607974 247.920186,44.1228861 C237.533935,33.6377982 222.099545,28.3953329 201.616555,28.3953329 L174.800618,28.3953329 L174.800618,155.083485 L197.273893,155.083485 C219.276823,155.083485 235.814961,149.678323 246.888804,138.867836 C257.962647,128.057349 263.499486,112.058791 263.499486,90.8716821 Z M426.530246,128.834742 C426.530246,142.790755 421.463858,153.67339 411.33093,161.482973 C401.198001,169.292555 387.446376,173.197288 370.075642,173.197288 C351.257347,173.197288 336.781952,170.774908 326.649024,165.930074 L326.649024,148.141669 C333.163049,150.889485 340.255993,153.058781 347.928067,154.649622 C355.600141,156.240463 363.199723,157.035871 370.727042,157.035871 C383.031312,157.035871 392.295564,154.703878 398.520077,150.039822 C404.74459,145.375765 407.8568,138.885955 407.8568,130.570196 C407.8568,125.074563 406.753051,120.573274 404.54552,117.066193 C402.33799,113.559112 398.646764,110.323245 393.471733,107.358496 C388.296702,104.393747 380.425706,101.031339 369.858509,97.2711693 C355.093385,91.9924699 344.544441,85.7376664 338.211361,78.5065713 C331.878281,71.2754763 328.711788,61.8390387 328.711788,50.1969756 C328.711788,37.9764249 333.307726,28.2507479 342.49974,21.0196528 C351.691753,13.7885577 363.851085,10.1730644 378.978099,10.1730644 C394.756516,10.1730644 409.268099,13.0654591 422.513284,18.8503352 L416.759257,34.903286 C403.658828,29.4076537 390.920481,26.6598788 378.543833,26.6598788 C368.772795,26.6598788 361.137024,28.7568649 355.636292,32.9509001 C350.135559,37.1449352 347.385234,42.9658794 347.385234,50.4139074 C347.385234,55.9095397 348.398512,60.4108288 350.425098,63.9179099 C352.451683,67.4249911 355.871495,70.6427801 360.684636,73.5713736 C365.497777,76.4999671 372.862134,79.7358336 382.777928,83.2790702 C399.424882,89.2085682 410.878538,95.5718364 417.13924,102.369066 C423.399942,109.166295 426.530246,117.988099 426.530246,128.834742 Z M489.245518,171.02797 L478.171731,171.02797 L478.171731,12.450848 L565.133533,12.450848 L565.133533,22.6466411 L489.245518,22.6466411 L489.245518,89.8954892 L560.899438,89.8954892 L560.899438,100.199748 L489.245518,100.199748 L489.245518,171.02797 Z M652.059145,50.8477709 C657.053231,50.8477709 662.409128,51.35394 668.126994,52.3662933 L666.06423,62.6705523 C661.142522,61.4412661 656.039945,60.8266323 650.756347,60.8266323 C640.695797,60.8266323 632.444822,65.0929144 626.003175,73.6256066 C619.561527,82.1582988 616.340752,92.9324688 616.340752,105.94844 L616.340752,171.02797 L605.592664,171.02797 L605.592664,53.1255545 L614.712254,53.1255545 L615.797919,74.3848677 L616.557885,74.3848677 C621.407215,65.7075536 626.582169,59.6154474 632.082901,56.1083663 C637.583634,52.6012852 644.242315,50.8477709 652.059145,50.8477709 Z M803.798985,111.914064 C803.798985,131.148777 799.13067,146.171151 789.793901,156.981638 C780.457131,167.792126 767.57403,173.197288 751.14421,173.197288 C740.794148,173.197288 731.674649,170.702598 723.785441,165.713142 C715.896233,160.723686 709.852755,153.56501 705.654828,144.236897 C701.456901,134.908784 699.357968,124.134614 699.357968,111.914064 C699.357968,92.6793507 704.026283,77.6931309 713.363053,66.9549547 C722.699822,56.2167785 735.510547,50.8477709 751.79561,50.8477709 C768.008295,50.8477709 780.728548,56.2890884 789.95675,67.1718865 C799.184953,78.0546846 803.798985,92.9685945 803.798985,111.914064 Z M710.648889,111.914064 C710.648889,128.111717 714.213455,140.747866 721.342694,149.82289 C728.471933,158.897914 738.550426,163.435358 751.578477,163.435358 C764.606527,163.435358 774.685021,158.897914 781.81426,149.82289 C788.943498,140.747866 792.508064,128.111717 792.508064,111.914064 C792.508064,95.6440997 788.90731,83.026028 781.705693,74.0594701 C774.504076,65.0929122 764.389394,60.6097005 751.361344,60.6097005 C738.333293,60.6097005 728.290988,65.0748347 721.234127,74.0052372 C714.177266,82.9356396 710.648889,95.5717887 710.648889,111.914064 Z M937.299645,171.02797 L937.299645,94.5595222 C937.299645,82.7005262 934.802639,74.0775747 929.808553,68.6904088 C924.814467,63.303243 917.070131,60.6097005 906.575313,60.6097005 C892.461591,60.6097005 882.129778,64.1709614 875.579564,71.2935901 C869.02935,78.4162187 865.754292,89.9677198 865.754292,105.94844 L865.754292,171.02797 L855.006204,171.02797 L855.006204,53.1255545 L864.125793,53.1255545 L866.188558,69.2869712 L866.839957,69.2869712 C874.512031,56.9941096 888.155091,50.8477709 907.769545,50.8477709 C934.549426,50.8477709 947.939166,65.2012794 947.939166,93.9087269 L947.939166,171.02797 L937.299645,171.02797 Z M1035.84188,163.65229 C1042.64541,163.65229 1048.58033,163.073811 1053.64679,161.916836 L1053.64679,170.594107 C1048.43557,172.32957 1042.42828,173.197288 1035.62474,173.197288 C1025.2023,173.197288 1017.51225,170.413358 1012.55435,164.845415 C1007.59646,159.277472 1005.11754,150.527978 1005.11754,138.596671 L1005.11754,62.4536205 L987.638331,62.4536205 L987.638331,56.1625992 L1005.11754,51.2816345 L1010.54587,24.599027 L1016.08277,24.599027 L1016.08277,53.1255545 L1050.71549,53.1255545 L1050.71549,62.4536205 L1016.08277,62.4536205 L1016.08277,137.078149 C1016.08277,146.117018 1017.67506,152.80568 1020.85969,157.144337 C1024.04433,161.482994 1029.03834,163.65229 1035.84188,163.65229 Z M1092.0687,128.420019 C1092.0687,117.854113 1094.88502,108.857915 1100.51773,101.431155 C1106.15045,94.0043949 1116.66853,86.1566477 1132.07228,77.8876778 L1123.45082,68.4702869 C1118.39287,63.0342048 1114.63778,57.7130494 1112.18544,52.5066609 C1109.73311,47.3002725 1108.50695,41.8642719 1108.50695,36.1984962 C1108.50695,25.2497676 1112.16625,16.5598231 1119.48495,10.128402 C1126.80365,3.69698097 1136.63201,0.481318681 1148.97034,0.481318681 C1160.84886,0.481318681 1170.25574,3.58213589 1177.19126,9.78386332 C1184.12678,15.9855908 1187.59449,24.5606902 1187.59449,35.5094189 C1187.59449,43.5486952 1184.91228,50.9179212 1179.54779,57.6173182 C1174.1833,64.3167151 1164.48904,71.7625045 1150.46473,79.9549099 L1202.4234,132.439637 C1207.09817,126.92699 1211.08316,120.916765 1214.37849,114.408779 C1217.67383,107.900793 1220.54762,100.206173 1222.99996,91.3246867 L1234.03543,91.3246867 C1229.20738,110.159563 1221.19908,126.467564 1210.01029,140.249181 L1240.58774,171.02797 L1225.06911,171.02797 L1202.88321,148.403263 C1195.83274,155.294071 1189.54871,160.328114 1184.03095,163.505542 C1178.51319,166.682971 1172.47823,169.113858 1165.92588,170.798278 C1159.37354,172.482698 1151.92084,173.324895 1143.56756,173.324895 C1127.55072,173.324895 1114.96352,169.381881 1105.80556,161.495733 C1096.64761,153.609586 1092.0687,142.584458 1092.0687,128.420019 Z M1144.37223,162.988734 C1154.18159,162.988734 1163.16698,161.323481 1171.32867,157.992923 C1179.49036,154.662366 1187.51781,149.054098 1195.41128,141.167951 L1139.88907,85.467529 C1129.46663,90.9801756 1121.9373,95.6696831 1117.30084,99.5361921 C1112.66439,103.402701 1109.29248,107.594547 1107.185,112.111854 C1105.07752,116.629162 1104.02379,121.912036 1104.02379,127.960634 C1104.02379,138.909363 1107.5873,147.484462 1114.71441,153.68619 C1121.84152,159.887917 1131.72736,162.988734 1144.37223,162.988734 Z M1120.80691,35.9688038 C1120.80691,42.0174021 1122.33959,47.6065294 1125.40502,52.7363534 C1128.47044,57.8661773 1134.29466,64.527192 1142.87785,72.7195974 C1155.0629,66.2116118 1163.53101,60.1248225 1168.28242,54.4590468 C1173.03382,48.7932711 1175.40949,42.3236649 1175.40949,35.0500339 C1175.40949,27.8529675 1173.03382,22.0150092 1168.28242,17.5359839 C1163.53101,13.0569585 1157.09372,10.8174794 1148.97034,10.8174794 C1140.23389,10.8174794 1133.35595,13.0378176 1128.33631,17.4785607 C1123.31668,21.9193038 1120.80691,28.0826566 1120.80691,35.9688038 Z" id="RDSFront&amp;"></path>
        </g>
        <g id="person---right" transform="translate(303.000000, 55.459115)">
          <path d="M5.94059852,166.173282 C12.1340631,166.726954 19.0593186,166.721747 26.3676027,166.721747 L75.5674408,166.721747 C101.945259,166.721747 123.333333,166.784723 123.333333,140.402755 C123.333333,115.507983 104.280265,95.0602621 79.9564772,92.836736 C79.7675452,101.546758 66.8620343,108.575813 50.9675218,108.575813 C35.0681649,108.575813 22.1674984,101.546758 21.9688775,92.836736 C13.9654919,93.5685004 6.5329641,96.2740798 0.162380313,100.462401 C8.61649181,111.871504 13.6156281,125.988526 13.6156281,141.271298 C13.6156281,152.651614 10.8448094,160.609125 5.94059613,166.173285 Z" id="Combined-Shape"></path>
          <path d="M7.94832813,90.5299556 C8.71069031,80.4858249 8.07712301,69.6420591 7.94883992,58.097995 C7.94883992,19.2650765 31.4988128,0.158462087 52.3573749,0.158462087 L52.3573749,0.157950933 C63.598772,0.157950933 74.861267,5.0776426 83.1551228,15.0688388 C91.4489787,25.0602054 96.7659099,39.9978438 96.7659099,59.8016729 C96.2252996,69.496779 97.0447554,80.7561254 98.672345,92.1788548 C90.7289813,88.7415415 81.8273576,86.6729934 73.2683652,85.8905847 C73.2683652,85.8905847 68.1347325,84.8422429 66.1152893,86.6506605 C62.4193259,89.9604072 57.7139093,94.2211491 52.1855037,94.2211491 C45.8484818,94.2211491 41.3628433,89.7679751 38.2031516,86.6506605 C36.2885226,84.7617101 30.8590852,85.8905847 30.8590852,85.8905847 C23.4037272,86.572242 15.4266155,88.0671817 7.94832813,90.5299556 Z M66.0215474,36.2108705 C69.5356403,41.3130443 73.1925158,46.6978865 79.5255808,52.1336739 C79.1280003,59.7769671 75.4211562,69.4192152 70.0780874,77.0562723 C64.4331903,85.1246757 57.0779441,90.4761225 52.3573749,90.4761225 C47.6445103,90.4761225 40.2578478,85.0866799 34.583277,77.0031123 C29.5388078,69.816723 25.9707658,60.9277463 25.2959228,53.5715515 C30.8000191,52.8900121 38.2470712,51.1803707 46.3259333,48.0863525 C53.9702637,45.1588003 61.4434874,41.4759322 66.0215474,36.2108705 L66.0215474,36.2108705 Z" id="Combined-Shape"></path>
        </g>
        <g id="person---middle" transform="translate(115.000000, 0.459115)">
          <path d="M140.29178,74.6129281 C140.315741,74.3588427 140.338721,74.1042863 140.360712,73.849268 C140.401352,73.4274819 140.436186,73.0056958 140.465214,72.5839097 C140.668413,71.1997383 140.796137,69.7918044 140.877417,68.3660486 C140.929668,67.3917821 140.970307,66.4115749 140.970307,65.4254271 C140.970307,62.9957015 140.796137,60.5956792 140.465214,58.2669446 C139.658657,52.5541774 137.900621,47.1779027 135.370614,42.3316083 C132.301191,39.0064182 128.510175,35.8237195 124.259771,33.4524064 C119.528356,30.7789348 114.348273,29.0547124 108.956834,28.3650235 C106.34269,28.016471 103.33179,27.8792748 100.943835,27.9497269 C98.0108028,27.979391 95.214967,28.2500753 92.4487952,28.6208758 C87.2756904,29.2939693 68.1688786,36.6125189 61.8294599,37.535817 C61.5497118,37.9462669 61.2759819,38.3617688 61.0084103,38.7821718 C62.0196374,44.6396235 57.7757749,56.5705054 53.4205387,62.8831703 C53.3784435,63.7255216 53.3570202,64.5732822 53.3570202,65.4254271 C53.3570202,66.4115749 53.3976599,67.3917821 53.4499109,68.3660486 C53.5369958,69.7918044 53.6647204,71.1997383 53.8621131,72.5839097 C53.896947,73.0056958 53.9259754,73.4274819 53.966615,73.849268 C54.807795,83.5831999 57.087354,92.6439686 60.4763482,100.539503 C61.924212,103.167336 63.678543,105.552582 65.8029743,107.425885 C76.7303314,117.083885 85.8131202,123.461885 93.2402489,110.040885 L96.4614579,110.040885 L97.5384512,110.040885 L100.75966,110.040885 C108.186789,123.461885 117.269578,117.083885 128.196935,107.425885 C131.374769,104.623979 133.724458,100.676792 135.459003,96.4856099 C137.7691,90.133409 139.392192,83.1424558 140.179206,75.7356373 C140.24246,74.9699328 140.263169,74.5408852 140.263169,74.5408852 C140.263169,74.5408852 140.273193,74.565133 140.29178,74.6129281 Z M48.0330964,66.9385914 C48.051569,67.44772 48.0764446,67.9553851 48.10425,68.4615866 C48.2019844,70.023868 48.3453282,71.5666209 48.5668596,73.0833357 C48.6059533,73.5455107 48.6385314,74.0076856 48.6841408,74.4698605 C51.7855793,109.510531 72.3098044,136.590075 97.1669215,136.590075 C122.024039,136.590075 142.548264,109.510531 145.643187,74.4698605 C145.688796,74.0076856 145.72789,73.5455107 145.760468,73.0833357 C145.988515,71.5666209 146.131859,70.023868 146.223077,68.4615866 C146.281718,67.3940276 146.327327,66.3199591 146.327327,65.2393811 C146.327327,62.7517838 146.156682,60.2926007 145.831335,57.8990001 C146.113719,57.1379124 146.619043,55.5806227 147.026922,53.2642774 C147.256818,51.5771351 147.56829,49.4450322 147.486714,47.0051649 C147.412554,44.5801296 147.223446,41.7620458 146.537465,38.7511457 C145.247079,32.7367615 142.314047,25.7137999 137.0116,19.3397392 C134.367792,16.1731029 131.178908,13.1770348 127.537647,10.6333433 C123.903802,8.08223585 119.843537,5.96125695 115.616411,4.41131084 C111.311417,2.83170069 107.195531,1.82312331 102.538277,1.24096652 C98.4223913,0.699597781 94.2434696,0.488241493 90.2981523,0.658809725 C82.4075175,0.97769816 75.2065717,2.51652026 68.847343,5.07875175 C65.6695827,6.34318148 62.6957626,7.94133165 59.9740869,9.85837027 C57.2449952,11.7976569 54.7420918,14.1262841 52.7916811,17.0370681 C51.8387238,18.4238619 50.9932987,19.9923481 50.463054,21.4903821 C49.9179772,23.0588683 49.6250448,24.2083498 49.3914405,25.9956083 C49.3543604,26.3886568 49.3209884,26.7594573 49.2876164,27.1043018 L49.2616603,27.5974665 C49.3209884,27.8866908 49.3506524,28.023887 49.3729005,28.1351272 C49.4173965,28.3576075 49.4433526,28.4688476 49.4433526,28.4688476 C49.6658329,29.5367531 50.0774214,30.5490385 50.5854181,31.5094118 C50.2368656,31.691104 49.8883132,31.8765043 49.5545927,32.1064006 C49.1318801,32.395625 49.03918,32.4957411 48.7536636,32.7182214 C47.7599183,33.5006105 46.6697648,34.5091879 46.0060319,35.4436051 C45.1568987,36.4781386 44.593282,37.4755919 44.0111252,38.5805774 C43.4289684,39.6929789 43.0507519,40.7645924 42.6391633,41.954862 C42.3351069,43.0820956 41.9791384,44.2909052 41.8382342,45.4700508 C41.6454179,46.6566124 41.5378858,47.8691301 41.5082217,49.0593997 C41.3932736,53.8501422 42.4908431,58.5815567 44.3485536,61.9780893 C45.1976868,63.6726476 46.2470522,65.0112375 47.0553973,65.8381226 C47.7045585,66.4546899 47.7409184,66.79868 48.0330964,66.9385914 Z" id="Combined-Shape"></path>
          <path d="M58.4809342,131.35686 C58.7480749,143.060951 76.0991897,152.506244 97.4834776,152.506244 C118.86125,152.506244 136.21888,143.060951 136.47299,131.35686 C169.187953,134.344723 194.813914,161.821347 194.813914,195.273698 C194.813914,230.724467 166.047421,230.639844 130.569832,230.639844 L64.3971235,230.639844 C28.9195344,230.639844 0.153041055,230.730977 0.153041055,195.273698 C0.153041055,161.821347 25.7724865,134.344723 58.4809342,131.35686 Z" id="Shape"></path>
        </g>
        <g id="person---left" transform="translate(0.000000, 60.459115)">
          <path d="M122.404331,94.660667 C116.320853,90.9289987 109.337537,88.5206951 101.855513,87.836736 C101.666581,96.5467577 88.7610702,103.575813 72.8665577,103.575813 C56.9672008,103.575813 44.0665343,96.5467577 43.8679135,87.836736 C19.5489702,90.0602621 0.500746169,110.507983 0.500746169,135.402755 C0.500746169,161.789567 21.8888207,161.721747 48.2666387,161.721747 L97.4664768,161.721747 C104.095407,161.721747 110.409208,161.725725 116.147618,161.312963 C111.167844,155.742538 108.351327,147.747184 108.351327,136.271298 C108.351327,120.628523 113.587426,106.207067 122.404331,94.660667 Z" id="Combined-Shape"></path>
          <path d="M36.3154767,38.8271202 C36.3154767,39.6312713 36.3493876,40.430578 36.3929873,41.2250405 C36.4656535,42.3876686 36.5722305,43.5357637 36.7369405,44.6644818 C36.7660069,45.0084259 36.790229,45.35237 36.8241399,45.6963142 C39.1300795,71.7730921 54.3899742,91.9253113 72.8714021,91.9253113 C91.3528301,91.9253113 106.612725,71.7730921 108.91382,45.6963142 C108.947731,45.35237 108.976797,45.0084259 109.001019,44.6644818 C109.170574,43.5357637 109.277151,42.3876686 109.344973,41.2250405 C109.388572,40.430578 109.422483,39.6312713 109.422483,38.8271202 C109.422483,36.8458083 109.277151,34.8887178 109.001019,32.9897586 C106.331749,14.5136615 91.1735869,0.35382094 72.8714021,0.35382094 C54.5692174,0.35382094 39.4062109,14.5136615 36.7369405,32.9897586 C36.460809,34.893562 36.3154767,36.8458083 36.3154767,38.8271202 Z M41.2373983,45.9918155 C42.6568107,46.3454482 44.4056431,47.043025 46.3094966,48.3703586 C46.3094966,48.3703586 42.695566,26.9247157 50.3206689,23.92126 C50.3206689,23.92126 60.8427296,29.0319791 72.8665577,29.356546 C84.8903858,29.0319791 95.4076021,23.92126 95.4076021,23.92126 C103.032705,26.9247157 99.4187744,48.3606701 99.4187744,48.3606701 C101.327472,47.043025 103.07146,46.3454482 104.490873,45.9918155 C102.388398,68.7696363 89.0420461,86.3350082 72.8665577,86.3350082 C56.6910694,86.3350082 43.3350283,68.7696363 41.2373983,45.9918155 Z" id="Shape"></path>
        </g>
      </g>
    </g>
  </g>
</svg>
